<?xml version="1.0" standalone="no"?><!DOCTYPE svg PUBLIC "-//W3C//DTD SVG 1.1//EN" "http://www.w3.org/Graphics/SVG/1.1/DTD/svg11.dtd"><svg t="1561541696470" class="icon" viewBox="0 0 1220 1024" version="1.1" xmlns="http://www.w3.org/2000/svg" p-id="2242" xmlns:xlink="http://www.w3.org/1999/xlink" width="238.28125" height="200"><defs><style type="text/css"></style></defs><path d="M862.43551401 725.669732a215.61820099 215.61820099 0 0 1 18.64564199-52.207797 45.08516199 45.08516199 0 0 0-3.729128-52.20779699 142.601868 142.601868 0 0 1-44.749541-126.790364 158.00316801 158.00316801 0 0 1 44.749541-89.49908101 40.647499 40.647499 0 0 0 7.458256-52.207796 122.576449 122.576449 0 0 1-18.64564199-82.040824 126.305577 126.305577 0 0 1 22.37477099-55.936926 44.74954 44.74954 0 0 0 0-52.207796A503.432328 503.432328 0 0 0 470.877037 2.218831a511.748284 511.748284 0 1 0 417.662376 857.699521 36.060671 36.060671 0 0 0 0-52.207796 109.18887801 109.18887801 0 0 1-26.10389899-82.040824z m-178.99816101-37.291284a167.810776 167.810776 0 0 1-37.29128299 33.562155 221.10002 221.10002 0 0 1-59.66605401 26.10389901c-3.729128 0-11.187385 3.729128-14.916513 3.729128v44.74954a59.66605401 59.66605401 0 0 1-119.332108 0v-44.74954c-11.187385-3.729128-26.10389799-7.458257-37.291283-11.18738501a239.969409 239.969409 0 0 1-130.519493-130.519492 261.41189801 261.41189801 0 0 1 0-193.914674 239.969409 239.969409 0 0 1 130.519493-130.51949301c11.187385-3.729128 26.10389799-11.187385 41.020412-14.91651299v-48.478669a59.66605401 59.66605401 0 1 1 119.332107 0v48.478669c3.729128 0 11.187385 3.729128 14.916513 3.729128a197.643803 197.643803 0 0 1 55.93692601 29.833027 167.810776 167.810776 0 0 1 37.29128299 33.562155 69.548244 69.548244 0 0 1 18.645642 37.291284 51.79759299 51.79759299 0 0 1-18.645642 37.29128299 52.87904 52.87904 0 0 1-74.58256699-3.729128 128.95325801 128.95325801 0 0 0-44.74954-26.10389899 136.26234999 136.26234999 0 0 0-108.14472201 0 137.12004999 137.12004999 0 0 0-74.582567 74.58256699 136.225059 136.225059 0 0 0-11.187385 55.93692601 119.10836 119.10836 0 0 0 11.187385 52.207797 137.12004999 137.12004999 0 0 0 74.582567 74.582567 136.26234999 136.26234999 0 0 0 108.14472201 0 311.083887 311.083887 0 0 0 44.74954-29.833027 52.841749 52.841749 0 0 1 74.58256699 0 51.79759299 51.79759299 0 0 1 18.645642 37.291283 100.68646599 100.68646599 0 0 1-18.645642 41.020412z" fill="#1890ff" p-id="2243"></path><path d="M1026.51716199 296.819971m-59.66605399 0a59.66605401 59.66605401 0 1 0 119.332107 0 59.66605401 59.66605401 0 1 0-119.332107 0Z" fill="#1890ff" p-id="2244"></path><path d="M1160.76578199 513.109416m-59.66605299 0a59.66605401 59.66605401 0 1 0 119.332107 0 59.66605401 59.66605401 0 1 0-119.332107 0Z" fill="#1890ff" p-id="2245"></path><path d="M1026.51716199 736.857117m-59.66605399 0a59.66605401 59.66605401 0 1 0 119.332107 0 59.66605401 59.66605401 0 1 0-119.332107 0Z" fill="#1890ff" p-id="2246"></path></svg>